<svg version="1.1" id="Layer_1" xmlns="http://www.w3.org/2000/svg" xmlns:xlink="http://www.w3.org/1999/xlink" x="0px" y="0px"
	 width="100%" viewBox="0 0 660 156" enable-background="new 0 0 660 156" xml:space="preserve">
<path fill="#02060E" opacity="1.000000" stroke="none" 
	d="
M479.000000,157.000000 
	C319.382080,157.000000 160.264175,157.000000 1.073131,157.000000 
	C1.073131,105.064766 1.073131,53.129410 1.073131,1.097023 
	C220.999985,1.097023 440.999969,1.097023 660.972046,1.097023 
	C660.972046,53.069099 660.972046,105.034561 660.972046,157.000000 
	C600.462769,157.000000 539.981384,157.000000 479.000000,157.000000 
M497.522675,77.941383 
	C503.457794,86.994888 509.875702,95.777328 515.163147,105.194489 
	C518.863403,111.784836 523.707520,113.627365 530.673462,112.941605 
	C534.345337,112.580124 535.987000,111.493881 535.963135,107.549812 
	C535.850220,88.888504 535.961426,70.225876 535.963684,51.563713 
	C535.963806,50.777256 535.674316,49.990768 535.387939,48.533775 
	C531.853882,48.533775 528.373413,48.726933 524.924561,48.479614 
	C521.455078,48.230831 520.166382,49.467617 520.250305,52.992970 
	C520.476196,62.485828 520.450928,71.984970 520.485535,81.481758 
	C520.491089,82.999962 520.291992,84.518906 520.095947,87.367874 
	C518.428650,85.189140 517.602783,84.228569 516.906738,83.181671 
	C511.189667,74.582794 505.001648,66.246002 499.957825,57.267204 
	C496.126617,50.447124 491.399872,47.644955 483.617126,48.314838 
	C479.458618,48.672775 478.192169,49.785255 478.225098,53.839191 
	C478.354980,69.833733 478.222687,85.830444 478.180756,101.826340 
	C478.150970,113.183029 478.144348,113.046631 489.575592,112.908012 
	C493.125366,112.864960 494.162415,111.631615 494.110748,108.228546 
	C493.961578,98.400101 494.072235,88.567398 494.125488,78.736603 
	C494.131897,77.551178 494.412384,76.367241 494.683350,74.275269 
	C495.934113,75.824371 496.532410,76.565384 497.522675,77.941383 
M247.071060,112.937546 
	C264.943390,109.801262 274.144287,98.310898 273.246063,80.634048 
	C273.075989,77.287086 271.796814,76.356392 268.704773,76.427208 
	C260.385773,76.617760 252.056137,76.833496 243.742920,76.601936 
	C238.704208,76.461578 239.197067,79.631042 239.041046,82.830688 
	C238.864609,86.448997 239.842041,88.452698 244.078873,88.140671 
	C248.790512,87.793671 253.547424,88.061211 258.807220,88.061211 
	C257.557770,93.566338 254.524780,96.382339 250.486298,98.206230 
	C242.151428,101.970490 231.566696,98.496422 227.525192,90.791702 
	C222.967880,82.103630 225.877121,68.555916 233.598434,64.429626 
	C239.346527,61.357826 246.173050,60.570892 251.055649,64.969612 
	C257.479248,70.756584 264.263214,68.510567 272.011475,68.945580 
	C271.043427,66.305023 270.580475,64.406921 269.697174,62.730267 
	C259.734772,43.819839 228.350372,42.553581 215.871674,60.694321 
	C207.788879,72.444572 207.112503,85.092476 214.017273,97.471359 
	C220.932190,109.868416 232.433685,114.064598 247.071060,112.937546 
M73.161598,87.499786 
	C73.191193,94.160202 73.367134,100.824440 73.193336,107.479546 
	C73.095268,111.235008 74.266678,112.995705 78.278564,112.878128 
	C85.099968,112.678207 91.937202,112.989235 98.756607,112.757217 
	C106.777779,112.484299 114.255577,110.181503 120.374016,104.825035 
	C130.274902,96.157196 132.648392,84.954437 130.020004,72.564171 
	C127.589539,61.106979 120.307030,52.911449 109.127388,50.728683 
	C98.332138,48.620964 87.000916,49.171452 75.896698,48.901611 
	C75.027725,48.880497 73.337852,51.574158 73.307884,53.032360 
	C73.078705,64.184502 73.166832,75.343170 73.161598,87.499786 
M159.304596,49.632690 
	C157.632996,50.372082 155.913101,51.019276 154.297455,51.865501 
	C141.710739,58.458126 135.354034,72.349022 137.993683,87.396660 
	C140.234833,100.172523 152.198059,111.371391 165.335800,112.991837 
	C180.296387,114.837120 194.405624,107.667168 200.033508,95.008636 
	C205.649628,82.376534 204.679764,70.073692 195.766174,59.404160 
	C186.387161,48.177547 173.989182,45.503006 159.304596,49.632690 
M351.857117,48.603176 
	C347.798645,47.984196 346.807220,49.901291 346.851166,53.724178 
	C347.040894,70.220009 346.955109,86.718987 346.974487,103.216820 
	C346.985687,112.779350 347.001801,112.505302 356.336060,112.913048 
	C361.256348,113.127983 362.718903,111.529549 362.457001,106.735428 
	C362.081665,99.864716 362.361298,92.958229 362.361298,86.067017 
	C364.347137,86.878693 365.302795,87.928902 366.166382,89.050041 
	C371.452240,95.912468 376.656219,102.839417 382.041504,109.622551 
	C383.099426,110.955055 384.772644,112.542198 386.263062,112.652931 
	C391.326385,113.029129 396.434967,112.796677 402.816742,112.796677 
	C400.829651,110.035645 399.681274,108.302124 398.395660,106.677216 
	C392.296692,98.968811 386.244232,91.220772 379.989502,83.640053 
	C377.931213,81.145424 377.749451,79.291550 379.882568,76.717941 
	C386.366425,68.895126 392.641510,60.898975 398.971161,52.949043 
	C399.835876,51.862934 400.548645,50.655827 401.999268,48.523598 
	C397.098846,48.523598 393.295258,48.769268 389.538208,48.456314 
	C385.573608,48.126076 383.061432,49.660812 380.796509,52.841187 
	C375.870972,59.757576 370.607727,66.434341 365.436890,73.174034 
	C364.833771,73.960175 363.943176,74.525780 362.378479,75.905624 
	C362.378479,69.503944 362.336273,64.199219 362.387573,58.895397 
	C362.485168,48.806313 362.507355,48.806526 351.857117,48.603176 
M323.087372,48.535831 
	C319.732025,48.553726 320.145447,51.013569 320.143188,53.145256 
	C320.130951,64.629135 320.276947,76.115135 320.098267,87.596191 
	C319.982880,95.009483 315.958405,98.967018 309.108673,99.051140 
	C301.857300,99.140190 297.873749,95.638603 297.711029,88.212379 
	C297.455902,76.568214 297.702850,64.913376 297.489258,53.267605 
	C297.460968,51.725880 296.117432,49.005138 295.143921,48.892227 
	C290.937592,48.404385 286.642273,48.683437 282.078339,48.683437 
	C282.078339,63.333080 281.267761,77.346695 282.304352,91.222313 
	C283.359070,105.341331 293.716431,113.326393 308.340485,113.336571 
	C323.333557,113.347000 333.829559,104.989906 335.194427,90.762207 
	C336.144287,80.860710 335.740356,70.823547 335.821564,60.846012 
	C335.920319,48.713036 335.865936,48.712593 323.087372,48.535831 
M455.021729,111.743805 
	C458.247955,112.100113 461.473145,112.739357 464.700684,112.751442 
	C470.676147,112.773834 471.105927,112.071121 469.030426,106.310417 
	C463.504364,90.972595 457.931061,75.651619 452.319061,60.345013 
	C447.944824,48.414387 447.905914,48.533150 435.002869,48.456501 
	C431.510345,48.435757 429.617157,49.427643 428.392456,52.904915 
	C422.148926,70.632210 415.638489,88.265388 409.266327,105.947678 
	C408.563538,107.897850 408.147125,109.951218 407.364075,112.810501 
	C412.168243,112.810501 416.295166,113.036400 420.370331,112.676361 
	C421.634888,112.564629 423.660858,110.979408 423.804169,109.870506 
	C424.907501,101.334671 430.352386,100.262192 437.356934,101.418915 
	C438.330353,101.579674 439.352203,101.460236 440.351410,101.449715 
	C450.805878,101.339722 450.805878,101.338547 455.021729,111.743805 
M550.075806,121.613792 
	C561.070374,97.225662 572.074097,72.841644 583.051819,48.445911 
	C585.234985,43.594215 587.646362,38.802296 589.254822,33.760231 
	C589.756348,32.187931 588.434753,28.786612 587.093872,28.210602 
	C585.634094,27.583540 582.693237,28.752886 581.291016,30.081442 
	C579.709900,31.579504 579.067688,34.102680 578.113708,36.223446 
	C566.182068,62.749977 554.262024,89.281754 542.360474,115.821808 
	C541.410461,117.940269 540.029053,120.106079 539.940491,122.294106 
	C539.869263,124.053680 541.043701,126.813049 542.416077,127.413681 
	C543.777893,128.009674 546.251221,126.747719 547.900269,125.746033 
	C548.867554,125.158432 549.177307,123.488419 550.075806,121.613792 
M52.791790,92.708405 
	C48.769974,89.045227 44.748158,85.382050 39.860847,80.930550 
	C48.375961,72.678108 55.829788,65.356758 63.407925,58.166416 
	C65.832268,55.866146 67.587624,53.460163 65.011826,50.504917 
	C62.163200,47.236656 59.379475,48.921829 56.915298,51.380802 
	C48.555660,59.722775 40.230972,68.100014 31.834974,76.405190 
	C28.737776,79.468880 28.653923,82.203201 31.857866,85.333908 
	C40.418205,93.698586 48.865589,102.179764 57.294800,110.677200 
	C59.837704,113.240700 62.561871,113.824654 65.082481,111.167465 
	C67.624428,108.487778 66.027176,106.000122 63.848080,103.824104 
	C60.316898,100.297920 56.810192,96.747231 52.791790,92.708405 
M593.555664,54.949440 
	C601.114197,62.568218 608.672729,70.186996 616.344543,77.919975 
	C608.572632,85.700371 601.307007,93.017967 593.984375,100.278114 
	C591.738037,102.505280 590.305542,104.857376 592.939880,107.565109 
	C595.469238,110.164993 598.077148,109.277977 600.360962,107.014137 
	C608.873169,98.576202 617.342407,90.094833 625.859985,81.662331 
	C628.347168,79.199997 628.464539,76.755615 626.005859,74.285393 
	C617.433289,65.672623 608.950256,56.963383 600.121216,48.620972 
	C598.768127,47.342438 595.295288,46.848042 593.641418,47.672737 
	C590.827820,49.075764 590.981079,51.966194 593.555664,54.949440 
z"/>
<path fill="#E2E2E3" opacity="1.000000" stroke="none" 
	d="
M497.326691,77.623894 
	C496.532410,76.565384 495.934113,75.824371 494.683350,74.275269 
	C494.412384,76.367241 494.131897,77.551178 494.125488,78.736603 
	C494.072235,88.567398 493.961578,98.400101 494.110748,108.228546 
	C494.162415,111.631615 493.125366,112.864960 489.575592,112.908012 
	C478.144348,113.046631 478.150970,113.183029 478.180756,101.826340 
	C478.222687,85.830444 478.354980,69.833733 478.225098,53.839191 
	C478.192169,49.785255 479.458618,48.672775 483.617126,48.314838 
	C491.399872,47.644955 496.126617,50.447124 499.957825,57.267204 
	C505.001648,66.246002 511.189667,74.582794 516.906738,83.181671 
	C517.602783,84.228569 518.428650,85.189140 520.095947,87.367874 
	C520.291992,84.518906 520.491089,82.999962 520.485535,81.481758 
	C520.450928,71.984970 520.476196,62.485828 520.250305,52.992970 
	C520.166382,49.467617 521.455078,48.230831 524.924561,48.479614 
	C528.373413,48.726933 531.853882,48.533775 535.387939,48.533775 
	C535.674316,49.990768 535.963806,50.777256 535.963684,51.563713 
	C535.961426,70.225876 535.850220,88.888504 535.963135,107.549812 
	C535.987000,111.493881 534.345337,112.580124 530.673462,112.941605 
	C523.707520,113.627365 518.863403,111.784836 515.163147,105.194489 
	C509.875702,95.777328 503.457794,86.994888 497.326691,77.623894 
z"/>
<path fill="#E2E2E2" opacity="1.000000" stroke="none" 
	d="
M246.618362,112.981857 
	C232.433685,114.064598 220.932190,109.868416 214.017273,97.471359 
	C207.112503,85.092476 207.788879,72.444572 215.871674,60.694321 
	C228.350372,42.553581 259.734772,43.819839 269.697174,62.730267 
	C270.580475,64.406921 271.043427,66.305023 272.011475,68.945580 
	C264.263214,68.510567 257.479248,70.756584 251.055649,64.969612 
	C246.173050,60.570892 239.346527,61.357826 233.598434,64.429626 
	C225.877121,68.555916 222.967880,82.103630 227.525192,90.791702 
	C231.566696,98.496422 242.151428,101.970490 250.486298,98.206230 
	C254.524780,96.382339 257.557770,93.566338 258.807220,88.061211 
	C253.547424,88.061211 248.790512,87.793671 244.078873,88.140671 
	C239.842041,88.452698 238.864609,86.448997 239.041046,82.830688 
	C239.197067,79.631042 238.704208,76.461578 243.742920,76.601936 
	C252.056137,76.833496 260.385773,76.617760 268.704773,76.427208 
	C271.796814,76.356392 273.075989,77.287086 273.246063,80.634048 
	C274.144287,98.310898 264.943390,109.801262 246.618362,112.981857 
z"/>
<path fill="#E1E1E2" opacity="1.000000" stroke="none" 
	d="
M73.158951,86.999802 
	C73.166832,75.343170 73.078705,64.184502 73.307884,53.032360 
	C73.337852,51.574158 75.027725,48.880497 75.896698,48.901611 
	C87.000916,49.171452 98.332138,48.620964 109.127388,50.728683 
	C120.307030,52.911449 127.589539,61.106979 130.020004,72.564171 
	C132.648392,84.954437 130.274902,96.157196 120.374016,104.825035 
	C114.255577,110.181503 106.777779,112.484299 98.756607,112.757217 
	C91.937202,112.989235 85.099968,112.678207 78.278564,112.878128 
	C74.266678,112.995705 73.095268,111.235008 73.193336,107.479546 
	C73.367134,100.824440 73.191193,94.160202 73.158951,86.999802 
M103.988266,63.082005 
	C100.538010,62.656803 97.084061,62.259277 93.638519,61.798805 
	C90.025055,61.315895 88.597954,62.658119 88.702049,66.473801 
	C88.928551,74.776192 88.792999,83.089943 88.726601,91.398430 
	C88.658638,99.901802 88.617439,99.901588 97.015388,99.385986 
	C97.347076,99.365631 97.678551,99.341148 98.009804,99.314606 
	C107.464233,98.557114 112.983917,93.976425 114.533768,85.602310 
	C116.432732,75.341873 112.954460,67.432968 103.988266,63.082005 
z"/>
<path fill="#E3E3E3" opacity="1.000000" stroke="none" 
	d="
M159.680115,49.489075 
	C173.989182,45.503006 186.387161,48.177547 195.766174,59.404160 
	C204.679764,70.073692 205.649628,82.376534 200.033508,95.008636 
	C194.405624,107.667168 180.296387,114.837120 165.335800,112.991837 
	C152.198059,111.371391 140.234833,100.172523 137.993683,87.396660 
	C135.354034,72.349022 141.710739,58.458126 154.297455,51.865501 
	C155.913101,51.019276 157.632996,50.372082 159.680115,49.489075 
M160.943115,96.814140 
	C169.611313,101.148689 178.476562,99.773445 183.573456,93.303558 
	C189.016296,86.394539 188.768616,73.997269 183.051849,67.194763 
	C176.127014,58.954762 161.368286,60.233379 155.971619,69.540825 
	C150.960403,78.183571 152.819580,89.632965 160.943115,96.814140 
z"/>
<path fill="#E3E3E3" opacity="1.000000" stroke="none" 
	d="
M352.301056,48.623207 
	C362.507355,48.806526 362.485168,48.806313 362.387573,58.895397 
	C362.336273,64.199219 362.378479,69.503944 362.378479,75.905624 
	C363.943176,74.525780 364.833771,73.960175 365.436890,73.174034 
	C370.607727,66.434341 375.870972,59.757576 380.796509,52.841187 
	C383.061432,49.660812 385.573608,48.126076 389.538208,48.456314 
	C393.295258,48.769268 397.098846,48.523598 401.999268,48.523598 
	C400.548645,50.655827 399.835876,51.862934 398.971161,52.949043 
	C392.641510,60.898975 386.366425,68.895126 379.882568,76.717941 
	C377.749451,79.291550 377.931213,81.145424 379.989502,83.640053 
	C386.244232,91.220772 392.296692,98.968811 398.395660,106.677216 
	C399.681274,108.302124 400.829651,110.035645 402.816742,112.796677 
	C396.434967,112.796677 391.326385,113.029129 386.263062,112.652931 
	C384.772644,112.542198 383.099426,110.955055 382.041504,109.622551 
	C376.656219,102.839417 371.452240,95.912468 366.166382,89.050041 
	C365.302795,87.928902 364.347137,86.878693 362.361298,86.067017 
	C362.361298,92.958229 362.081665,99.864716 362.457001,106.735428 
	C362.718903,111.529549 361.256348,113.127983 356.336060,112.913048 
	C347.001801,112.505302 346.985687,112.779350 346.974487,103.216820 
	C346.955109,86.718987 347.040894,70.220009 346.851166,53.724178 
	C346.807220,49.901291 347.798645,47.984196 352.301056,48.623207 
z"/>
<path fill="#E1E1E2" opacity="1.000000" stroke="none" 
	d="
M323.527802,48.530487 
	C335.865936,48.712593 335.920319,48.713036 335.821564,60.846012 
	C335.740356,70.823547 336.144287,80.860710 335.194427,90.762207 
	C333.829559,104.989906 323.333557,113.347000 308.340485,113.336571 
	C293.716431,113.326393 283.359070,105.341331 282.304352,91.222313 
	C281.267761,77.346695 282.078339,63.333080 282.078339,48.683437 
	C286.642273,48.683437 290.937592,48.404385 295.143921,48.892227 
	C296.117432,49.005138 297.460968,51.725880 297.489258,53.267605 
	C297.702850,64.913376 297.455902,76.568214 297.711029,88.212379 
	C297.873749,95.638603 301.857300,99.140190 309.108673,99.051140 
	C315.958405,98.967018 319.982880,95.009483 320.098267,87.596191 
	C320.276947,76.115135 320.130951,64.629135 320.143188,53.145256 
	C320.145447,51.013569 319.732025,48.553726 323.527802,48.530487 
z"/>
<path fill="#E2E2E3" opacity="1.000000" stroke="none" 
	d="
M454.801514,111.404007 
	C450.805878,101.338547 450.805878,101.339722 440.351410,101.449715 
	C439.352203,101.460236 438.330353,101.579674 437.356934,101.418915 
	C430.352386,100.262192 424.907501,101.334671 423.804169,109.870506 
	C423.660858,110.979408 421.634888,112.564629 420.370331,112.676361 
	C416.295166,113.036400 412.168243,112.810501 407.364075,112.810501 
	C408.147125,109.951218 408.563538,107.897850 409.266327,105.947678 
	C415.638489,88.265388 422.148926,70.632210 428.392456,52.904915 
	C429.617157,49.427643 431.510345,48.435757 435.002869,48.456501 
	C447.905914,48.533150 447.944824,48.414387 452.319061,60.345013 
	C457.931061,75.651619 463.504364,90.972595 469.030426,106.310417 
	C471.105927,112.071121 470.676147,112.773834 464.700684,112.751442 
	C461.473145,112.739357 458.247955,112.100113 454.801514,111.404007 
M446.142090,88.404015 
	C444.144958,81.683212 442.147827,74.962402 440.150726,68.241600 
	C439.498840,68.241920 438.846985,68.242241 438.195099,68.242561 
	C435.836182,75.056351 433.477264,81.870148 430.977356,89.091164 
	C436.701202,89.091164 441.159332,89.091164 446.142090,88.404015 
z"/>
<path fill="#F14BC7" opacity="1.000000" stroke="none" 
	d="
M549.929321,121.959549 
	C549.177307,123.488419 548.867554,125.158432 547.900269,125.746033 
	C546.251221,126.747719 543.777893,128.009674 542.416077,127.413681 
	C541.043701,126.813049 539.869263,124.053680 539.940491,122.294106 
	C540.029053,120.106079 541.410461,117.940269 542.360474,115.821808 
	C554.262024,89.281754 566.182068,62.749977 578.113708,36.223446 
	C579.067688,34.102680 579.709900,31.579504 581.291016,30.081442 
	C582.693237,28.752886 585.634094,27.583540 587.093872,28.210602 
	C588.434753,28.786612 589.756348,32.187931 589.254822,33.760231 
	C587.646362,38.802296 585.234985,43.594215 583.051819,48.445911 
	C572.074097,72.841644 561.070374,97.225662 549.929321,121.959549 
z"/>
<path fill="#F24CC8" opacity="1.000000" stroke="none" 
	d="
M53.042473,92.957642 
	C56.810192,96.747231 60.316898,100.297920 63.848080,103.824104 
	C66.027176,106.000122 67.624428,108.487778 65.082481,111.167465 
	C62.561871,113.824654 59.837704,113.240700 57.294800,110.677200 
	C48.865589,102.179764 40.418205,93.698586 31.857866,85.333908 
	C28.653923,82.203201 28.737776,79.468880 31.834974,76.405190 
	C40.230972,68.100014 48.555660,59.722775 56.915298,51.380802 
	C59.379475,48.921829 62.163200,47.236656 65.011826,50.504917 
	C67.587624,53.460163 65.832268,55.866146 63.407925,58.166416 
	C55.829788,65.356758 48.375961,72.678108 39.860847,80.930550 
	C44.748158,85.382050 48.769974,89.045227 53.042473,92.957642 
z"/>
<path fill="#F34DC9" opacity="1.000000" stroke="none" 
	d="
M593.315796,54.695389 
	C590.981079,51.966194 590.827820,49.075764 593.641418,47.672737 
	C595.295288,46.848042 598.768127,47.342438 600.121216,48.620972 
	C608.950256,56.963383 617.433289,65.672623 626.005859,74.285393 
	C628.464539,76.755615 628.347168,79.199997 625.859985,81.662331 
	C617.342407,90.094833 608.873169,98.576202 600.360962,107.014137 
	C598.077148,109.277977 595.469238,110.164993 592.939880,107.565109 
	C590.305542,104.857376 591.738037,102.505280 593.984375,100.278114 
	C601.307007,93.017967 608.572632,85.700371 616.344543,77.919975 
	C608.672729,70.186996 601.114197,62.568218 593.315796,54.695389 
z"/>
<path fill="#060A12" opacity="1.000000" stroke="none" 
	d="
M104.366302,63.212547 
	C112.954460,67.432968 116.432732,75.341873 114.533768,85.602310 
	C112.983917,93.976425 107.464233,98.557114 98.009804,99.314606 
	C97.678551,99.341148 97.347076,99.365631 97.015388,99.385986 
	C88.617439,99.901588 88.658638,99.901802 88.726601,91.398430 
	C88.792999,83.089943 88.928551,74.776192 88.702049,66.473801 
	C88.597954,62.658119 90.025055,61.315895 93.638519,61.798805 
	C97.084061,62.259277 100.538010,62.656803 104.366302,63.212547 
z"/>
<path fill="#060A12" opacity="1.000000" stroke="none" 
	d="
M160.635681,96.592072 
	C152.819580,89.632965 150.960403,78.183571 155.971619,69.540825 
	C161.368286,60.233379 176.127014,58.954762 183.051849,67.194763 
	C188.768616,73.997269 189.016296,86.394539 183.573456,93.303558 
	C178.476562,99.773445 169.611313,101.148689 160.635681,96.592072 
z"/>
<path fill="#0C1018" opacity="1.000000" stroke="none" 
	d="
M445.879791,88.747589 
	C441.159332,89.091164 436.701202,89.091164 430.977356,89.091164 
	C433.477264,81.870148 435.836182,75.056351 438.195099,68.242561 
	C438.846985,68.242241 439.498840,68.241920 440.150726,68.241600 
	C442.147827,74.962402 444.144958,81.683212 445.879791,88.747589 
z"/>
</svg>