<?xml version="1.0" standalone="no"?>
<!DOCTYPE svg PUBLIC "-//W3C//DTD SVG 20010904//EN"
 "http://www.w3.org/TR/2001/REC-SVG-20010904/DTD/svg10.dtd">
<svg version="1.0" xmlns="http://www.w3.org/2000/svg"
 width="2000.000000pt" height="2000.000000pt" viewBox="0 0 2000.000000 2000.000000"
 preserveAspectRatio="xMidYMid meet">

<g transform="translate(0.000000,2000.000000) scale(0.100000,-0.100000)"
fill="#000000" stroke="none">
<path d="M9848 14993 c6 -2 18 -2 25 0 6 3 1 5 -13 5 -14 0 -19 -2 -12 -5z"/>
<path d="M9838 14973 c7 -3 16 -2 19 1 4 3 -2 6 -13 5 -11 0 -14 -3 -6 -6z"/>
<path d="M15133 14875 c138 -32 246 -88 339 -178 116 -111 195 -276 205 -428
3 -42 0 -625 -6 -1295 -14 -1355 -11 -1304 -82 -1450 -84 -171 -241 -301 -430
-354 l-74 -20 59 5 c94 9 203 50 294 112 131 88 219 205 269 358 l26 80 8 560
c4 308 10 780 12 1048 3 269 8 491 11 494 6 6 794 -15 843 -23 18 -3 41 -16
53 -31 20 -26 20 -27 20 -2029 l0 -2004 28 -17 c94 -58 170 -111 211 -146 l46
-40 3 2104 c3 2208 4 2166 -41 2254 -49 98 -150 182 -245 204 -40 9 -705 41
-869 41 l-53 0 0 79 c0 305 -189 567 -473 656 -43 14 -110 27 -150 30 l-72 5
68 -15z"/>
<path d="M9450 14780 c-9 -6 -10 -10 -3 -10 6 0 15 5 18 10 8 12 4 12 -15 0z"/>
<path d="M9496 14775 c-3 -8 -12 -15 -19 -15 -8 0 -20 -6 -27 -14 -10 -13 -7
-13 18 -4 28 11 62 48 43 48 -5 0 -11 -7 -15 -15z"/>
<path d="M9392 14718 c-7 -7 -12 -16 -12 -21 0 -5 7 -1 16 8 9 9 14 18 12 20
-2 3 -10 -1 -16 -7z"/>
<path d="M9478 14723 c7 -3 16 -2 19 1 4 3 -2 6 -13 5 -11 0 -14 -3 -6 -6z"/>
<path d="M9411 14696 c-16 -19 -11 -29 8 -17 7 5 12 14 9 21 -3 9 -8 7 -17 -4z"/>
<path d="M9367 14663 c4 -10 2 -14 -5 -9 -6 3 -13 2 -17 -4 -7 -11 5 -13 29
-4 20 8 21 20 2 27 -11 4 -13 1 -9 -10z"/>
<path d="M9425 14660 c-3 -5 -1 -10 4 -10 6 0 11 5 11 10 0 6 -2 10 -4 10 -3
0 -8 -4 -11 -10z"/>
<path d="M9344 14599 c1 -12 -5 -24 -13 -27 -10 -3 -11 2 -7 19 6 21 6 22 -5
6 -8 -14 -8 -22 0 -30 6 -6 11 -22 12 -36 1 -26 1 -26 14 4 16 33 20 85 7 85
-5 0 -8 -10 -8 -21z"/>
<path d="M3647 14540 c-168 -43 -307 -185 -336 -345 -12 -65 -16 -7315 -4
-7315 3 0 41 17 82 39 94 48 267 107 344 116 l57 7 0 3550 0 3550 29 29 c29
28 32 29 133 29 57 0 225 -5 373 -10 259 -9 1525 -51 3175 -105 426 -14 971
-32 1210 -40 519 -18 570 -18 550 -5 -13 8 -12 10 3 10 9 0 17 -7 17 -15 0 -8
-4 -15 -10 -15 -5 0 -10 -5 -10 -11 0 -5 4 -8 9 -4 5 3 5 -11 -1 -32 -6 -21
-8 -69 -5 -108 3 -42 2 -62 -3 -50 -6 13 -9 -18 -10 -85 0 -58 -7 -442 -15
-855 -8 -412 -15 -759 -15 -771 0 -12 -11 -26 -25 -34 -13 -7 -22 -16 -20 -20
3 -4 -3 -14 -13 -21 -15 -13 -16 -12 -3 4 7 9 11 17 8 17 -6 0 -115 -68 -337
-210 -80 -51 -165 -104 -189 -119 -103 -62 -160 -104 -154 -114 3 -6 1 -7 -6
-3 -6 4 -34 -7 -64 -27 -29 -19 -113 -72 -187 -119 -241 -151 -335 -211 -352
-226 -28 -23 -23 -61 10 -73 19 -7 716 -9 2307 -6 2747 7 3356 9 3248 14 -46
2 -83 8 -83 13 0 5 37 11 83 13 66 2 59 3 -40 5 l-123 2 0 40 0 40 -40 0 -40
0 0 40 0 40 -40 0 -40 0 0 40 0 40 -80 0 -80 0 0 40 0 40 -40 0 -40 0 0 40 0
40 -40 0 -40 0 0 40 0 40 -80 0 -80 0 0 40 0 40 -40 0 -40 0 0 40 0 40 -40 0
-40 0 0 40 0 40 -80 0 -80 0 0 40 0 40 -40 0 -40 0 0 40 0 40 -40 0 -40 0 0
40 c0 30 -4 40 -16 40 -9 0 -29 14 -44 30 -15 17 -36 30 -45 30 -12 0 -15 5
-9 22 6 21 5 22 -11 8 -11 -9 -16 -10 -11 -2 4 6 2 12 -3 12 -6 0 -11 -4 -11
-10 0 -5 -20 -10 -45 -10 l-45 0 0 40 c0 40 0 40 -39 40 l-40 0 -3 52 c-2 41
-7 54 -20 56 -23 4 -23 -15 0 -21 9 -3 0 -5 -20 -6 -38 -1 -38 -1 -35 37 3 38
2 39 -40 48 -24 6 -43 7 -43 2 0 -4 -9 -8 -20 -8 -11 0 -20 7 -20 15 0 8 -7
15 -15 15 -8 0 -15 -7 -15 -15 0 -9 -9 -15 -25 -15 -14 0 -25 5 -25 10 0 6 -9
10 -20 10 -11 0 -20 5 -20 10 0 6 9 10 20 10 11 0 20 -4 20 -10 0 -15 40 -12
41 3 1 6 2 21 3 31 2 32 20 28 40 -9 17 -32 22 -34 59 -30 29 2 36 1 26 -6
-11 -8 -10 -10 6 -8 34 2 41 0 71 -26 15 -13 30 -22 32 -20 14 14 -101 80
-124 71 -18 -7 -64 21 -64 39 0 7 -24 22 -52 34 -32 12 -45 15 -34 6 10 -8 24
-16 30 -18 6 -2 8 -7 5 -10 -3 -4 -23 2 -44 13 -22 11 -48 20 -58 20 -15 0
-18 5 -15 24 4 18 1 22 -13 19 -9 -3 -20 0 -23 6 -5 7 0 9 11 5 14 -5 15 -4 4
4 -15 10 -44 5 -37 -7 2 -3 -34 -7 -80 -9 -54 -2 -84 1 -84 8 0 9 56 14 130
11 25 0 25 0 -2 10 -16 6 -28 15 -28 20 0 6 8 6 19 -1 26 -13 38 -13 23 2 -6
6 -27 11 -47 10 -19 -1 -35 3 -35 8 0 6 6 10 13 10 6 1 -1 8 -16 16 -22 12
-34 13 -55 5 -26 -11 -26 -11 -2 -7 14 2 34 1 45 -4 17 -7 -36 -7 -79 -1 -5 0
1 9 13 20 18 16 19 20 5 25 -8 3 -25 6 -36 6 -11 0 -27 9 -36 19 -10 11 -42
33 -72 50 -55 29 -56 29 -57 8 0 -12 1 -16 4 -9 5 14 23 17 23 3 0 -17 -29
-20 -44 -6 -8 8 -22 15 -30 15 -20 0 -21 19 -1 26 11 5 8 11 -13 31 -15 13
-21 22 -14 18 11 -6 13 7 11 61 -3 68 -2 69 31 92 18 12 31 22 29 23 -50 8
-119 8 -119 0 0 -6 9 -11 19 -11 24 0 28 -11 29 -90 0 -36 -2 -57 -5 -47 -2 9
-9 17 -14 17 -5 0 -9 14 -9 30 0 27 -3 30 -30 30 -28 0 -30 2 -30 40 l0 40
-40 0 -40 0 0 40 0 40 -80 0 -80 0 0 40 0 40 -40 0 -40 0 0 40 0 40 -40 0 -40
0 0 40 0 40 -80 0 -80 0 0 40 0 40 -40 0 -40 0 0 40 0 40 -40 0 -40 0 0 40 0
40 -80 0 -80 0 0 40 0 40 -40 0 -40 0 0 40 0 40 -40 0 -40 0 0 40 0 40 -40 0
c-29 0 -40 4 -40 15 0 11 -11 15 -40 15 -36 0 -40 3 -40 25 0 23 -4 25 -40 25
l-40 0 0 40 0 40 -40 0 -40 0 0 40 0 40 -80 0 -80 0 0 40 c0 38 -2 40 -30 40
l-30 0 0 -80 c0 -129 -19 -94 -23 43 l-3 122 0 -133 c1 -72 -2 -132 -6 -132
-4 0 -6 67 -5 149 l2 148 -180 7 c-99 3 -427 15 -730 26 -872 32 -1568 57
-2600 96 -1369 50 -1447 53 -1775 59 -177 3 -310 1 -333 -5z m5630 -612 c-3
-7 -5 -2 -5 12 0 14 2 19 5 13 2 -7 2 -19 0 -25z m-7 -193 c-6 -30 -8 -33 -9
-13 -1 25 8 62 14 56 2 -2 -1 -21 -5 -43z m4 -630 c-4 -8 -8 -15 -10 -15 -2 0
-4 7 -4 15 0 8 4 15 10 15 5 0 7 -7 4 -15z m1716 -15 c0 -5 -4 -10 -10 -10 -5
0 -10 5 -10 10 0 6 5 10 10 10 6 0 10 -4 10 -10z m-1733 -62 c-3 -7 -5 -2 -5
12 0 14 2 19 5 13 2 -7 2 -19 0 -25z m1643 -128 c0 -11 -4 -20 -10 -20 -5 0
-10 9 -10 20 0 11 5 20 10 20 6 0 10 -9 10 -20z m84 -11 c-8 -14 -21 -11 -21
5 0 8 6 12 14 9 7 -3 10 -9 7 -14z m161 -76 c19 -15 19 -15 -5 -9 -14 3 -31 6
-38 6 -7 0 -10 5 -7 10 8 13 -5 13 -25 0 -12 -8 -12 -10 -1 -10 8 0 12 -2 9
-5 -3 -3 -13 -2 -23 1 -15 6 -15 8 6 20 26 14 52 10 84 -13z m83 -50 c-10 -2
-18 -9 -18 -15 0 -6 -3 -9 -6 -5 -10 10 6 27 24 26 15 -1 15 -2 0 -6z m-1981
-65 c-3 -8 -6 -5 -6 6 -1 11 2 17 5 13 3 -3 4 -12 1 -19z m1993 -28 c0 -5 -4
-10 -10 -10 -5 0 -10 5 -10 10 0 6 5 10 10 10 6 0 10 -4 10 -10z m2003 -1497
c-24 -2 -62 -2 -85 0 -24 2 -5 4 42 4 47 0 66 -2 43 -4z"/>
<path d="M9291 14520 c0 -8 4 -22 9 -30 12 -18 12 -2 0 25 -6 13 -9 15 -9 5z"/>
<path d="M9271 14434 c0 -11 3 -14 6 -6 3 7 2 16 -1 19 -3 4 -6 -2 -5 -13z"/>
<path d="M9260 14391 c0 -6 4 -13 10 -16 6 -3 7 1 4 9 -7 18 -14 21 -14 7z"/>
<path d="M10080 13780 c0 -17 7 -20 40 -20 33 0 40 3 40 20 0 17 -7 20 -40 20
-33 0 -40 -3 -40 -20z"/>
<path d="M10338 13603 c12 -2 32 -2 45 0 12 2 2 4 -23 4 -25 0 -35 -2 -22 -4z"/>
<path d="M11214 13271 c4 -6 3 -11 -3 -11 -5 0 -8 -11 -6 -25 2 -19 -5 -30
-24 -40 -14 -8 -21 -14 -16 -15 6 0 23 9 38 19 21 13 25 20 15 25 -10 5 -10 7
0 12 6 3 10 10 6 15 -7 12 7 11 26 -1 12 -8 12 -10 1 -10 -8 0 -12 -3 -8 -6 3
-4 21 3 39 15 18 11 28 21 23 21 -6 0 -16 -5 -22 -11 -8 -8 -20 -6 -43 6 -18
9 -29 12 -26 6z"/>
<path d="M11063 13180 c27 -22 37 -25 37 -12 0 8 -43 32 -57 32 -3 0 6 -9 20
-20z"/>
<path d="M11120 13190 c-8 -5 -10 -10 -5 -10 6 0 17 5 25 10 8 5 11 10 5 10
-5 0 -17 -5 -25 -10z"/>
<path d="M11126 13165 c-11 -8 -15 -15 -9 -15 6 0 16 7 23 15 16 19 11 19 -14
0z"/>
<path d="M11070 13145 c7 -9 15 -13 17 -11 7 7 -7 26 -19 26 -6 0 -6 -6 2 -15z"/>
<path d="M11406 13080 c-26 -16 -26 -19 -8 -24 10 -4 30 -2 43 4 21 9 19 9
-11 4 -39 -7 -38 -2 5 20 17 9 23 16 15 15 -8 0 -28 -9 -44 -19z"/>
<path d="M11468 13043 c7 -3 16 -2 19 1 4 3 -2 6 -13 5 -11 0 -14 -3 -6 -6z"/>
<path d="M11300 13025 c-14 -8 -19 -14 -10 -14 8 0 24 6 34 14 25 19 9 19 -24
0z"/>
<path d="M11340 13020 c-10 -6 -11 -10 -2 -10 6 0 12 -5 12 -11 0 -6 -8 -8
-17 -5 -10 3 -25 1 -33 -5 -12 -9 -12 -10 3 -5 10 3 26 2 36 -3 15 -8 17 -5
17 20 0 16 0 29 0 29 -1 0 -8 -5 -16 -10z"/>
<path d="M11540 12990 c0 -5 5 -10 10 -10 6 0 10 5 10 10 0 6 -4 10 -10 10 -5
0 -10 -4 -10 -10z"/>
<path d="M11428 12945 c24 -18 72 -37 72 -29 0 3 -13 10 -30 15 -16 6 -28 14
-26 18 3 4 -5 8 -16 8 l-21 2 21 -14z"/>
<path d="M11478 12943 c7 -3 16 -2 19 1 4 3 -2 6 -13 5 -11 0 -14 -3 -6 -6z"/>
<path d="M11400 12930 c8 -5 20 -10 25 -10 6 0 3 5 -5 10 -8 5 -19 10 -25 10
-5 0 -3 -5 5 -10z"/>
<path d="M11625 12910 c3 -5 10 -10 16 -10 5 0 9 5 9 10 0 6 -7 10 -16 10 -8
0 -12 -4 -9 -10z"/>
<path d="M11465 12900 c3 -5 11 -10 16 -10 6 0 7 5 4 10 -3 6 -11 10 -16 10
-6 0 -7 -4 -4 -10z"/>
<path d="M11585 12881 c-19 -8 -19 -8 3 -15 13 -4 26 -5 29 -2 4 3 0 6 -8 6
-11 0 -11 2 1 10 18 11 3 12 -25 1z"/>
<path d="M11660 12880 c0 -5 4 -10 9 -10 6 0 13 5 16 10 3 6 -1 10 -9 10 -9 0
-16 -4 -16 -10z"/>
<path d="M11557 12859 c7 -7 15 -10 18 -7 3 3 -2 9 -12 12 -14 6 -15 5 -6 -5z"/>
<path d="M11620 12830 c8 -5 22 -9 30 -9 10 0 8 3 -5 9 -27 12 -43 12 -25 0z"/>
<path d="M11675 12830 c3 -5 8 -10 11 -10 2 0 4 5 4 10 0 6 -5 10 -11 10 -5 0
-7 -4 -4 -10z"/>
<path d="M11790 12820 c0 -5 5 -10 11 -10 5 0 7 5 4 10 -3 6 -8 10 -11 10 -2
0 -4 -4 -4 -10z"/>
<path d="M11713 12796 c0 -8 8 -12 21 -9 17 4 18 3 6 -6 -9 -7 -10 -11 -3 -11
21 0 24 19 4 29 -25 14 -28 14 -28 -3z"/>
<path d="M11778 12778 c9 -9 15 -9 24 0 9 9 7 12 -12 12 -19 0 -21 -3 -12 -12z"/>
<path d="M11820 12770 c-9 -6 -10 -10 -3 -10 6 0 15 5 18 10 8 12 4 12 -15 0z"/>
<path d="M11785 12750 c3 -5 8 -10 11 -10 2 0 4 5 4 10 0 6 -5 10 -11 10 -5 0
-7 -4 -4 -10z"/>
<path d="M11827 12745 c-16 -11 -16 -13 -2 -19 9 -3 13 -2 10 3 -3 5 3 11 12
13 10 2 13 6 8 10 -6 3 -18 0 -28 -7z"/>
<path d="M12102 12661 c-17 -47 -15 -62 3 -27 9 17 14 37 12 45 -1 9 -8 2 -15
-18z"/>
<path d="M12130 12640 c0 -16 2 -30 4 -30 2 0 6 14 8 30 3 17 1 30 -4 30 -4 0
-8 -13 -8 -30z"/>
<path d="M12106 12604 c-4 -9 -4 -19 -1 -22 3 -3 5 0 5 7 0 7 4 9 10 6 6 -3 7
1 4 9 -8 20 -10 20 -18 0z"/>
<path d="M12101 12534 c0 -11 3 -14 6 -6 3 7 2 16 -1 19 -3 4 -6 -2 -5 -13z"/>
<path d="M13048 12493 c7 -3 16 -2 19 1 4 3 -2 6 -13 5 -11 0 -14 -3 -6 -6z"/>
<path d="M12375 12479 c-4 -5 -4 -13 -1 -16 3 -4 6 0 6 8 0 11 2 11 10 -1 6
-9 10 -10 10 -3 0 17 -17 25 -25 12z"/>
<path d="M12010 12469 c0 -5 5 -7 10 -4 6 3 10 8 10 11 0 2 -4 4 -10 4 -5 0
-10 -5 -10 -11z"/>
<path d="M12031 12444 c-5 -19 -7 -42 -5 -49 3 -8 1 -22 -6 -32 -10 -17 -11
-17 -6 2 3 11 2 34 -3 50 -6 22 -8 6 -7 -57 1 -49 3 -83 4 -78 2 6 8 7 14 4 6
-4 8 2 3 16 -4 13 -3 20 2 17 5 -3 8 8 5 26 -2 23 -1 28 6 18 7 -9 8 1 5 31
-3 25 0 55 6 67 7 13 8 21 2 21 -6 0 -15 -16 -20 -36z"/>
<path d="M11770 12450 c0 -5 5 -10 10 -10 6 0 10 5 10 10 0 6 -4 10 -10 10 -5
0 -10 -4 -10 -10z"/>
<path d="M12060 12435 c-7 -9 -8 -15 -2 -15 5 0 12 7 16 15 3 8 4 15 2 15 -2
0 -9 -7 -16 -15z"/>
<path d="M12378 12427 c-3 -19 -2 -25 4 -19 6 6 8 18 6 28 -3 14 -5 12 -10 -9z"/>
<path d="M12051 12394 c0 -11 3 -14 6 -6 3 7 2 16 -1 19 -3 4 -6 -2 -5 -13z"/>
<path d="M12300 12290 c0 -11 4 -20 9 -20 5 0 7 9 4 20 -3 11 -7 20 -9 20 -2
0 -4 -9 -4 -20z"/>
<path d="M12064 12253 c7 -7 87 -5 95 3 2 2 -20 4 -49 4 -29 0 -50 -3 -46 -7z"/>
<path d="M12200 12204 c0 -15 23 -44 34 -44 12 0 6 32 -8 46 -19 18 -26 18
-26 -2z"/>
<path d="M13800 11175 c0 -14 5 -25 10 -25 6 0 9 3 9 8 -1 4 -1 14 0 22 1 13
3 13 10 0 6 -8 8 -17 6 -20 -1 -3 36 -5 84 -6 64 -1 75 0 41 6 l-45 6 40 6
c22 3 5 3 -37 0 -50 -2 -78 0 -78 6 0 6 6 13 13 15 6 3 -3 6 -20 6 -29 1 -33
-2 -33 -24z"/>
<path d="M14098 11173 c12 -2 32 -2 45 0 12 2 2 4 -23 4 -25 0 -35 -2 -22 -4z"/>
<path d="M15238 10757 c-63 -18 -114 -59 -128 -103 -16 -48 -17 -124 -1 -161
l12 -30 34 34 c30 30 38 33 94 33 34 0 74 -6 89 -14 15 -7 49 -19 77 -25 66
-16 75 -26 75 -76 0 -50 -29 -99 -79 -132 -40 -27 -68 -28 -152 -7 -39 10 -78
13 -105 9 -39 -6 -44 -9 -49 -39 -9 -46 12 -114 44 -147 38 -37 86 -45 158
-24 103 30 147 77 157 170 4 42 11 55 43 82 21 18 44 31 51 28 19 -7 72 113
79 179 7 70 -7 106 -60 151 -79 68 -236 101 -339 72z m1 -517 c25 -1 25 -1 7
-15 -27 -20 -50 -19 -77 6 l-24 20 34 -5 c18 -3 45 -6 60 -6z"/>
<path d="M12624 8954 c-50 -17 -84 -56 -84 -96 0 -17 36 -241 79 -497 44 -256
89 -524 101 -595 11 -71 23 -133 26 -138 3 -4 24 -8 48 -8 96 0 212 -59 260
-133 21 -33 23 -44 14 -61 -6 -12 -16 -24 -22 -28 -6 -5 -7 -8 -1 -8 6 0 132
-7 280 -15 149 -8 371 -19 495 -25 124 -6 356 -17 515 -25 160 -8 412 -20 560
-27 l271 -12 104 42 c58 23 193 76 300 117 331 129 348 137 365 155 23 25 29
81 12 104 -14 19 -27 20 -247 17 l-233 -3 -90 -54 c-85 -51 -117 -64 -117 -46
0 18 -31 329 -45 447 -8 72 -31 276 -50 453 -19 178 -40 332 -45 343 -6 10
-19 23 -29 29 -18 9 -866 36 -1861 60 -250 5 -480 12 -511 14 -30 2 -73 -2
-95 -10z"/>
<path d="M6425 7694 c-385 -7 -842 -17 -1015 -22 -296 -8 -318 -10 -357 -30
-79 -41 -84 -64 -64 -290 10 -110 58 -688 101 -1227 30 -386 44 -614 37 -622
-4 -3 -7 24 -7 60 l0 67 -40 0 c-29 0 -40 -4 -40 -15 0 -11 -11 -15 -40 -15
l-40 0 0 40 0 40 -40 0 -40 0 0 -40 0 -40 40 0 40 0 0 -40 0 -40 -40 0 -40 0
0 -40 0 -40 -80 0 -80 0 0 -40 0 -40 -40 0 -40 0 0 -40 c0 -40 0 -40 -39 -40
-44 0 -53 13 -46 63 l5 32 -10 -30 c-6 -16 -8 -38 -6 -49 4 -15 0 -17 -30 -14
-37 4 -50 -12 -38 -48 4 -14 3 -15 -4 -5 -11 15 -27 -2 -17 -19 3 -5 2 -10 -4
-10 -19 0 -22 -39 -5 -67 60 -96 108 -168 116 -171 4 -2 8 -8 8 -13 0 -9 69
-120 80 -129 3 -3 21 -27 40 -55 19 -27 36 -52 39 -55 4 -3 33 -41 66 -85 105
-142 202 -257 311 -373 l51 -53 27 113 c14 62 26 125 26 141 0 15 5 27 11 27
21 0 -6 -212 -36 -291 -4 -10 8 -30 35 -57 22 -24 40 -52 40 -64 0 -19 -7 -15
-52 29 l-53 51 -93 -23 c-453 -116 -925 -125 -1300 -24 -40 11 -78 16 -84 13
-6 -4 -8 -3 -5 2 3 6 -18 18 -46 28 -83 29 -203 81 -247 109 -17 10 -22 9 -31
-3 -8 -12 -9 -11 -5 5 5 15 -1 23 -25 34 -16 7 -33 10 -37 6 -4 -4 -7 -52 -7
-108 0 -94 2 -107 31 -162 17 -33 35 -59 41 -58 6 1 10 -5 9 -15 0 -9 4 -16
11 -15 7 2 10 -3 7 -10 -8 -21 164 -179 186 -172 10 3 21 1 25 -4 3 -7 0 -8
-9 -5 -29 11 -16 -5 29 -36 25 -17 50 -28 57 -24 7 4 8 3 4 -4 -4 -7 -3 -12 3
-12 5 0 17 -7 26 -16 13 -14 18 -14 33 -2 15 11 16 11 4 -3 -11 -15 -3 -22 70
-61 46 -25 110 -57 143 -72 33 -15 68 -31 78 -37 10 -5 23 -7 30 -3 7 4 8 3 4
-1 -10 -12 128 -66 150 -59 13 4 15 3 5 -4 -10 -6 35 -27 155 -69 278 -100
558 -172 829 -215 77 -11 141 -22 142 -24 2 -1 12 -96 22 -209 20 -232 23
-242 100 -282 30 -16 60 -23 99 -23 48 0 366 28 696 60 55 6 174 17 265 25 91
8 338 30 550 50 212 19 491 44 620 55 129 12 248 26 264 32 64 25 76 82 56
274 -5 55 -39 430 -75 834 -35 404 -72 817 -81 918 -9 101 -15 185 -12 187 5
5 879 58 883 53 3 -3 -36 -210 -136 -723 -64 -321 -64 -362 -1 -489 49 -98
147 -198 240 -245 53 -26 201 -88 755 -315 45 -18 156 -64 247 -101 187 -76
286 -108 386 -124 175 -26 230 -24 864 33 338 31 867 79 1175 107 447 40 566
54 590 68 37 21 59 65 80 159 28 125 -9 179 -157 227 -287 95 -718 249 -761
272 -29 15 -86 61 -128 103 -59 58 -85 94 -118 160 -40 81 -47 109 -131 545
-50 253 -90 467 -90 475 0 14 65 20 478 44 262 15 662 38 887 52 462 27 1267
73 1335 76 25 1 48 7 52 12 4 6 9 34 10 61 l1 50 6 -60 c5 -47 3 -63 -9 -72
-8 -6 -11 -15 -7 -19 4 -5 12 -2 17 6 7 11 9 10 7 -7 0 -12 -5 -19 -9 -17 -4
3 -8 -1 -8 -8 0 -11 -2 -11 -9 0 -5 9 -11 -12 -15 -55 -4 -37 -10 -88 -13
-113 -6 -42 -5 -44 11 -31 17 14 18 12 13 -30 -2 -24 -2 -33 1 -19 4 22 7 20
18 -20 l14 -45 -5 43 c-5 40 -4 42 20 42 21 0 25 -5 25 -30 0 -16 5 -30 10
-30 6 0 10 9 10 20 0 11 5 20 10 20 6 0 10 -7 10 -15 0 -11 11 -15 40 -15 29
0 40 -4 40 -15 0 -10 10 -15 29 -15 16 0 31 -6 35 -15 4 -10 20 -15 51 -15 41
0 45 -2 45 -25 0 -24 -3 -25 -55 -25 -46 0 -55 -3 -55 -17 0 -10 -3 -28 -6
-40 -6 -22 -4 -23 55 -23 45 0 61 -4 61 -14 0 -21 48 -17 55 5 7 22 14 23 35
8 13 -9 12 -10 -2 -5 -10 3 -18 1 -18 -4 0 -6 0 -13 0 -17 0 -10 30 -11 51 -1
8 3 21 3 29 -2 11 -7 12 -17 2 -60 -18 -76 -13 -84 7 -15 10 33 15 66 11 74
-4 8 -4 28 1 45 5 17 6 39 3 48 -7 22 4 60 16 53 5 -3 13 7 19 22 11 27 11 27
6 -7 -5 -32 -4 -33 8 -15 8 11 23 45 35 75 11 30 28 72 37 93 12 29 13 37 3
32 -7 -3 -6 -1 2 7 18 16 53 88 46 95 -3 3 1 12 9 20 16 16 20 38 6 28 -5 -3
-13 0 -17 6 -4 8 -3 9 4 5 7 -4 12 0 13 11 0 13 2 14 6 4 4 -9 13 2 25 28 10
23 17 45 14 49 -2 4 42 8 98 10 55 2 110 5 121 8 15 4 16 3 6 -4 -11 -8 -12
-50 -6 -238 4 -126 9 -240 11 -254 1 -14 3 -85 3 -159 1 -74 4 -131 8 -127 4
3 6 49 5 101 -1 58 2 95 8 95 6 0 11 -35 12 -82 1 -46 3 -64 5 -40 2 23 8 42
12 42 13 0 23 -93 23 -210 0 -86 1 -96 8 -55 4 28 5 53 3 58 -6 11 15 8 22 -3
4 -6 11 -8 16 -5 5 4 16 -1 25 -9 11 -12 36 -16 95 -16 64 0 79 -3 79 -15 0
-11 11 -15 40 -15 36 0 40 -2 40 -25 0 -22 -4 -25 -40 -25 -33 0 -40 -3 -40
-20 0 -17 7 -20 40 -20 33 0 40 -3 40 -20 0 -17 7 -20 40 -20 36 0 40 -2 40
-25 0 -14 6 -25 13 -25 8 0 7 -4 -3 -11 -11 -8 -7 -9 19 -5 18 3 37 6 42 6 5
0 9 7 9 15 0 8 5 15 10 15 20 0 25 2 39 13 11 9 13 9 8 1 -4 -7 -1 -14 6 -17
7 -2 14 -20 15 -38 4 -48 12 -49 12 -1 0 23 -4 42 -8 42 -5 0 -8 10 -6 23 4
33 5 34 14 7 8 -24 8 -24 8 5 0 31 -15 91 -17 67 -1 -7 -5 -10 -11 -7 -5 3
-10 -3 -10 -13 0 -11 -7 -25 -15 -32 -8 -7 -12 -16 -9 -21 3 -5 -5 -9 -17 -9
-18 0 -19 3 -9 15 6 8 8 20 4 26 -5 9 -2 10 10 6 9 -4 15 -3 11 2 -5 9 2 17
40 49 13 11 17 10 24 -10 7 -18 10 -9 17 47 5 39 7 88 6 110 -2 22 2 51 7 65
9 21 10 16 6 -25 -3 -27 13 22 35 109 22 87 38 168 35 180 -4 14 -3 17 3 8 12
-17 55 157 47 195 -4 20 -3 23 3 9 6 -14 19 31 47 159 22 97 44 179 50 181 5
1 114 9 242 17 l232 14 75 37 c88 43 142 99 189 195 l32 66 3 822 3 822 -58
-28 c-62 -31 -183 -71 -214 -71 -18 0 -19 -9 -19 -112 0 -108 2 -120 51 -273
99 -314 129 -449 129 -574 -1 -125 -29 -194 -98 -242 -63 -43 -170 -28 -472
66 -171 53 -438 96 -676 110 -166 10 -405 -8 -744 -57 -282 -39 -402 -45 -479
-22 -15 4 -22 3 -18 -2 3 -6 -134 -17 -356 -27 -199 -10 -724 -36 -1167 -57
-443 -22 -944 -47 -1115 -55 -170 -8 -672 -33 -1115 -55 -443 -22 -949 -46
-1125 -55 -176 -8 -637 -31 -1024 -50 -388 -20 -708 -32 -712 -28 -6 7 -39
366 -54 588 -8 116 -41 472 -60 645 -8 74 -19 199 -25 278 -5 79 -15 155 -22
170 -7 14 -28 37 -47 49 -41 27 -33 27 -1126 7z m-35 -118 c20 -25 8 -61 -21
-64 -33 -4 -53 20 -45 53 7 29 45 35 66 11z m1107 -152 c46 -29 55 -59 70
-217 7 -84 27 -294 43 -467 16 -173 52 -567 80 -875 45 -506 142 -1589 220
-2461 39 -432 39 -437 -3 -479 -29 -29 -41 -33 -102 -39 -39 -3 -187 -17 -330
-31 -143 -14 -384 -36 -535 -49 -151 -14 -502 -46 -780 -71 -278 -26 -519 -44
-537 -40 -36 7 -79 51 -87 92 -6 30 -120 1393 -241 2883 -41 514 -88 1089
-104 1277 -16 188 -26 353 -24 366 3 14 18 38 35 54 l29 28 337 8 c1373 34
1860 44 1882 40 14 -2 35 -11 47 -19z m6870 -1336 c-3 -8 -6 -5 -6 6 -1 11 2
17 5 13 3 -3 4 -12 1 -19z m-10 -180 c-3 -7 -5 -2 -5 12 0 14 2 19 5 13 2 -7
2 -19 0 -25z m704 -431 c-10 -9 -11 -8 -5 6 3 10 9 15 12 12 3 -3 0 -11 -7
-18z m-9931 -47 l-11 -25 6 25 c2 14 5 34 6 45 2 19 2 19 6 0 2 -12 -1 -32 -7
-45z m10147 -12 c-3 -8 -6 -5 -6 6 -1 11 2 17 5 13 3 -3 4 -12 1 -19z m-10137
-65 c-11 -17 -11 -17 -6 0 3 10 7 26 7 35 1 15 2 15 6 0 2 -10 -1 -25 -7 -35z
m9162 -53 c3 -17 1 -33 -4 -36 -4 -3 -8 11 -8 30 0 44 6 47 12 6z m-9145 -92
c-3 -7 -5 -2 -5 12 0 14 2 19 5 13 2 -7 2 -19 0 -25z m9163 17 c0 -8 -6 -12
-14 -9 -9 3 -18 -5 -25 -23 l-11 -28 6 30 c7 39 44 64 44 30z m-9 -71 c-7 -31
-9 -34 -10 -12 -1 27 9 62 15 55 3 -2 0 -22 -5 -43z m-9831 -1 c0 -7 -7 -13
-15 -13 -15 0 -21 31 -8 43 8 8 23 -12 23 -30z m687 -115 c-2 -24 -4 -7 -4 37
0 44 2 63 4 43 2 -21 2 -57 0 -80z m9731 61 c-3 -8 -7 -3 -11 10 -4 17 -3 21
5 13 5 -5 8 -16 6 -23z m-10388 11 c0 -5 -4 -10 -10 -10 -5 0 -10 5 -10 10 0
6 5 10 10 10 6 0 10 -4 10 -10z m36 -58 c1 -12 -3 -22 -7 -22 -5 0 -9 4 -9 9
0 5 -3 17 -7 27 -4 12 -2 15 8 12 8 -3 15 -14 15 -26z m10261 -49 c-3 -10 -5
-4 -5 12 0 17 2 24 5 18 2 -7 2 -21 0 -30z m1250 5 c-3 -8 -6 -5 -6 6 -1 11 2
17 5 13 3 -3 4 -12 1 -19z m-11447 -58 c0 -5 -2 -10 -4 -10 -3 0 -8 5 -11 10
-3 6 -1 10 4 10 6 0 11 -4 11 -10z m10171 -20 c5 0 9 6 9 13 0 8 3 7 10 -3 6
-9 6 -18 0 -24 -13 -13 -52 23 -42 38 4 7 8 5 10 -6 2 -10 8 -18 13 -18z m-41
0 c0 -5 -4 -10 -10 -10 -5 0 -10 5 -10 10 0 6 5 10 10 10 6 0 10 -4 10 -10z
m-60 -50 c0 -5 -2 -10 -4 -10 -3 0 -8 5 -11 10 -3 6 -1 10 4 10 6 0 11 -4 11
-10z m715 -10 c3 -5 1 -10 -4 -10 -6 0 -11 5 -11 10 0 6 2 10 4 10 3 0 8 -4
11 -10z m-36 -92 c1 -26 4 -28 41 -28 58 0 54 -26 -5 -29 l-45 -2 0 35 c0 19
-4 46 -9 59 -6 14 -7 28 -3 32 8 8 20 -29 21 -67z m28 30 c-3 -8 -6 -5 -6 6
-1 11 2 17 5 13 3 -3 4 -12 1 -19z m373 -153 c0 -11 -11 -15 -40 -15 -29 0
-40 4 -40 15 0 11 11 15 40 15 29 0 40 -4 40 -15z m199 -55 c0 -8 -5 -3 -11
13 -5 15 -14 25 -19 22 -5 -4 -6 1 -2 11 5 14 8 13 19 -7 7 -13 13 -31 13 -39z
m-9 -30 c0 -5 -2 -10 -4 -10 -3 0 -8 5 -11 10 -3 6 -1 10 4 10 6 0 11 -4 11
-10z m0 -35 c0 -8 -4 -15 -10 -15 -5 0 -7 7 -4 15 4 8 8 15 10 15 2 0 4 -7 4
-15z m-110 -40 c0 -8 -9 -15 -21 -15 -13 0 -18 4 -13 13 6 10 4 10 -7 0 -18
-18 -39 -16 -39 2 0 11 11 15 40 15 29 0 40 -4 40 -15z m27 -37 c-3 -8 -6 -5
-6 6 -1 11 2 17 5 13 3 -3 4 -12 1 -19z m-12547 -211 c0 -4 -7 -2 -15 7 -8 8
-15 21 -15 28 1 14 30 -20 30 -35z m-20 -102 c0 -8 -4 -15 -10 -15 -5 0 -10 7
-10 15 0 8 5 15 10 15 6 0 10 -7 10 -15z m26 -102 c-8 -15 -15 -25 -16 -21 0
12 23 58 27 54 3 -2 -2 -17 -11 -33z m84 -134 c0 -5 4 -8 8 -5 4 2 8 -4 8 -15
0 -24 0 -24 -20 6 -9 14 -12 25 -6 25 5 0 10 -5 10 -11z"/>
<path d="M4991 6034 c0 -11 3 -14 6 -6 3 7 2 16 -1 19 -3 4 -6 -2 -5 -13z"/>
<path d="M5030 5953 c0 -5 7 -18 15 -29 8 -10 15 -29 15 -42 0 -13 4 -21 9
-17 6 3 5 18 -1 38 -11 32 -38 67 -38 50z"/>
<path d="M4980 5930 c0 -5 5 -10 11 -10 5 0 7 5 4 10 -3 6 -8 10 -11 10 -2 0
-4 -4 -4 -10z"/>
<path d="M5041 5874 c0 -11 3 -14 6 -6 3 7 2 16 -1 19 -3 4 -6 -2 -5 -13z"/>
<path d="M5053 5800 c0 -25 2 -35 4 -22 2 12 2 32 0 45 -2 12 -4 2 -4 -23z"/>
<path d="M4681 5804 c0 -11 3 -14 6 -6 3 7 2 16 -1 19 -3 4 -6 -2 -5 -13z"/>
<path d="M5081 5753 c-1 -43 3 -73 9 -73 12 0 12 49 1 105 -8 36 -9 33 -10
-32z"/>
<path d="M4565 5759 c-4 -6 -5 -12 -2 -15 2 -3 7 2 10 11 7 17 1 20 -8 4z"/>
<path d="M4690 5740 c0 -11 5 -20 10 -20 6 0 10 9 10 20 0 11 -4 20 -10 20 -5
0 -10 -9 -10 -20z"/>
<path d="M4661 5724 c0 -11 3 -14 6 -6 3 7 2 16 -1 19 -3 4 -6 -2 -5 -13z"/>
<path d="M4571 5644 c0 -11 3 -14 6 -6 3 7 2 16 -1 19 -3 4 -6 -2 -5 -13z"/>
<path d="M4610 5590 c0 -5 5 -10 10 -10 6 0 10 5 10 10 0 6 -4 10 -10 10 -5 0
-10 -4 -10 -10z"/>
<path d="M4604 5540 c3 -14 6 -38 6 -53 0 -16 4 -26 10 -22 15 9 12 39 -6 71
-15 27 -15 27 -10 4z"/>
<path d="M4516 5505 c-3 -9 -6 -22 -5 -28 0 -7 5 -1 10 12 5 13 8 26 5 28 -2
2 -6 -3 -10 -12z"/>
<path d="M4582 5495 c0 -16 2 -22 5 -12 2 9 2 23 0 30 -3 6 -5 -1 -5 -18z"/>
<path d="M4260 5471 c0 -5 5 -13 10 -16 6 -3 10 -2 10 4 0 5 -4 13 -10 16 -5
3 -10 2 -10 -4z"/>
<path d="M4551 5434 c0 -11 3 -14 6 -6 3 7 2 16 -1 19 -3 4 -6 -2 -5 -13z"/>
<path d="M4190 5411 c0 -5 5 -13 10 -16 6 -3 10 -2 10 4 0 5 -4 13 -10 16 -5
3 -10 2 -10 -4z"/>
<path d="M4536 5395 c-3 -8 -1 -15 4 -15 6 0 10 7 10 15 0 8 -2 15 -4 15 -2 0
-6 -7 -10 -15z"/>
<path d="M4515 5361 c-3 -5 -1 -12 5 -16 5 -3 10 1 10 9 0 18 -6 21 -15 7z"/>
<path d="M4435 5324 c-9 -20 -14 -38 -11 -41 7 -8 7 -7 29 40 9 20 13 37 8 37
-5 0 -16 -16 -26 -36z"/>
<path d="M4135 5325 c39 -33 57 -32 19 0 -16 14 -33 25 -39 25 -5 -1 4 -12 20
-25z"/>
<path d="M4250 5316 c0 -9 5 -16 10 -16 6 0 10 4 10 9 0 6 -4 13 -10 16 -5 3
-10 -1 -10 -9z"/>
<path d="M4502 5310 c0 -14 2 -19 5 -12 2 6 2 18 0 25 -3 6 -5 1 -5 -13z"/>
<path d="M4350 5297 c0 -7 11 -28 24 -45 l23 -32 15 22 c13 21 12 25 -4 41
-14 13 -18 14 -18 3 0 -8 6 -16 13 -19 6 -2 9 -8 5 -12 -8 -8 -38 12 -36 23 0
4 0 13 -1 20 -1 16 -21 16 -21 -1z"/>
<path d="M4092 5284 c10 -10 20 -16 22 -13 3 3 -5 11 -17 18 -21 13 -21 12 -5
-5z"/>
<path d="M3296 5267 c3 -10 9 -15 12 -12 3 3 0 11 -7 18 -10 9 -11 8 -5 -6z"/>
<path d="M3325 5269 c-4 -6 -5 -12 -2 -15 2 -3 7 2 10 11 7 17 1 20 -8 4z"/>
<path d="M4254 5262 c9 -15 66 -42 66 -32 0 11 -21 26 -49 35 -15 5 -21 4 -17
-3z"/>
<path d="M4145 5250 c3 -5 8 -10 11 -10 2 0 4 5 4 10 0 6 -5 10 -11 10 -5 0
-7 -4 -4 -10z"/>
<path d="M4080 5243 c0 -7 27 -23 68 -40 29 -13 9 15 -23 30 -40 19 -45 20
-45 10z"/>
<path d="M3300 5222 c0 -45 24 -140 46 -184 27 -53 81 -117 125 -149 26 -19
28 -19 22 -2 -6 16 -5 17 13 3 16 -12 16 -11 -2 10 -12 14 -27 43 -34 65 -11
35 -60 129 -90 175 -6 8 -16 27 -23 43 -7 15 -16 25 -19 21 -4 -3 -9 4 -13 15
-8 26 -25 28 -25 3z"/>
<path d="M4170 5236 c0 -2 9 -6 20 -9 11 -3 18 -1 14 4 -5 9 -34 13 -34 5z"/>
<path d="M4233 5207 c10 -9 15 -21 11 -31 -9 -22 -24 -20 -24 4 0 11 -4 20
-10 20 -5 0 -10 -13 -10 -30 0 -23 -4 -30 -20 -30 -11 0 -20 -4 -20 -10 0 -5
18 -10 40 -10 l40 0 0 -40 0 -40 -40 0 c-36 0 -40 -2 -40 -25 0 -22 -4 -25
-40 -25 -29 0 -40 -4 -40 -15 0 -11 -11 -15 -40 -15 l-40 0 0 40 0 40 -40 0
-40 0 0 -40 0 -40 40 0 40 0 0 -40 0 -40 -40 0 c-36 0 -40 -2 -40 -25 0 -22
-4 -25 -40 -25 -29 0 -40 -4 -40 -15 0 -29 -20 -15 -36 25 l-17 41 -78 -2
c-68 -2 -79 -4 -79 -19 0 -10 -7 -17 -16 -16 -9 0 -19 -5 -22 -13 -3 -9 1 -11
17 -6 24 7 30 -12 6 -21 -10 -4 -15 -20 -15 -45 0 -38 -1 -39 -32 -36 -29 2
-33 6 -30 30 2 15 -1 27 -5 27 -5 0 -8 -13 -7 -30 1 -16 -1 -30 -5 -30 -4 0
-7 -9 -8 -21 -1 -11 -9 -40 -19 -64 -9 -24 -14 -51 -11 -59 4 -10 1 -13 -9 -9
-9 3 -13 13 -9 27 5 16 4 18 -4 6 -5 -8 -7 -28 -5 -45 4 -22 3 -26 -4 -16 -8
11 -17 4 -41 -34 -17 -27 -31 -54 -30 -59 0 -6 5 -1 11 12 6 12 15 22 20 22
11 0 10 -17 -2 -25 -12 -8 -12 -16 0 -35 9 -13 11 -13 21 0 9 13 10 13 6 0 -4
-18 -56 -23 -74 -8 -10 8 -12 7 -7 -6 10 -26 -3 -51 -20 -37 -11 9 -15 8 -20
-5 -4 -9 -4 -19 -1 -22 3 -3 5 0 5 7 0 7 5 9 11 6 6 -4 8 -14 5 -24 -4 -11 -2
-10 10 4 l16 20 -6 -20 c-4 -14 1 -23 17 -31 12 -7 63 -32 113 -58 252 -127
619 -198 951 -182 150 7 307 22 373 36 198 42 291 64 301 71 13 8 -5 33 -110
144 -31 33 -90 101 -131 150 -41 50 -77 92 -80 95 -3 3 -18 23 -34 45 -16 22
-36 47 -43 55 -24 26 -173 233 -201 279 -15 24 -35 51 -44 60 -10 8 -18 20
-18 26 0 5 -7 19 -16 30 -13 17 -16 18 -25 5 -8 -12 -10 -10 -5 9 3 13 1 33
-5 43 -13 23 -87 71 -102 65 -7 -2 5 -12 26 -22 20 -11 37 -21 37 -24 0 -11
-95 -11 -110 0 -11 8 -12 12 -2 16 6 2 12 11 12 19 0 8 5 14 10 14 17 0 11 17
-7 24 -10 3 -25 9 -33 12 -10 3 -9 1 3 -9z m197 -200 c0 -5 -4 -5 -10 -2 -5 3
-10 14 -10 23 0 15 2 15 10 2 5 -8 10 -19 10 -23z m-894 -343 c-3 -9 -6 -18
-6 -20 0 -3 -4 -3 -10 1 -11 7 -2 35 12 35 6 0 7 -7 4 -16z m44 12 c0 -2 -7
-9 -15 -16 -13 -11 -14 -10 -9 4 5 14 24 23 24 12z m-16 -52 c3 -8 2 -12 -4
-9 -6 3 -10 10 -10 16 0 14 7 11 14 -7z m196 1 c0 -11 -11 -15 -40 -15 -29 0
-40 4 -40 15 0 11 11 15 40 15 29 0 40 -4 40 -15z m-236 -21 c3 -8 2 -12 -4
-9 -6 3 -10 -1 -10 -10 0 -9 -4 -13 -10 -10 -5 3 -10 13 -10 21 0 8 5 12 10 9
6 -3 10 -1 10 4 0 16 7 13 14 -5z m86 -4 c0 -5 -2 -10 -4 -10 -3 0 -8 5 -11
10 -3 6 -1 10 4 10 6 0 11 -4 11 -10z m-170 -84 c0 -8 -7 -16 -15 -20 -12 -4
-13 -2 -2 14 14 24 17 25 17 6z m-10 -63 c-11 -17 -11 -17 -6 0 3 10 6 24 7
30 0 9 2 9 5 0 3 -7 0 -20 -6 -30z m18 -147 c-7 -8 -15 -12 -17 -11 -5 6 10
25 20 25 5 0 4 -6 -3 -14z"/>
<path d="M3375 5190 c-4 -6 -1 -17 5 -25 10 -12 14 -12 26 0 19 18 18 31 -1
15 -9 -7 -19 -10 -22 -6 -4 4 -1 11 7 16 9 6 10 10 3 10 -6 0 -15 -5 -18 -10z"/>
<path d="M3411 5137 c-13 -21 -12 -21 5 -5 10 10 16 20 13 22 -3 3 -11 -5 -18
-17z"/>
<path d="M4270 5140 c0 -5 11 -10 25 -10 14 0 25 5 25 10 0 6 -11 10 -25 10
-14 0 -25 -4 -25 -10z"/>
<path d="M4018 5123 c12 -2 32 -2 45 0 12 2 2 4 -23 4 -25 0 -35 -2 -22 -4z"/>
<path d="M14253 5085 c4 -27 3 -45 -3 -45 -6 0 -10 -10 -10 -22 0 -17 3 -19
12 -10 14 14 18 122 4 122 -5 0 -6 -20 -3 -45z"/>
<path d="M3460 5025 c0 -8 2 -15 4 -15 2 0 6 7 10 15 3 8 1 15 -4 15 -6 0 -10
-7 -10 -15z"/>
<path d="M3488 5029 c-4 -10 1 -15 13 -16 12 -1 19 5 19 15 0 13 -2 14 -9 3
-7 -11 -9 -11 -13 0 -3 10 -6 10 -10 -2z"/>
<path d="M3471 4997 c-2 -14 18 -44 32 -50 8 -3 14 1 14 8 0 8 -7 11 -15 7
-11 -4 -14 -1 -9 12 4 9 3 15 -2 11 -5 -3 -12 1 -14 7 -3 7 -6 9 -6 5z"/>
<path d="M3760 4980 c0 -17 6 -20 43 -19 23 0 35 3 27 6 -8 3 -19 12 -23 19
-13 22 -47 17 -47 -6z"/>
<path d="M14829 4973 c-2 -24 -6 -113 -4 -111 1 2 9 25 18 52 15 44 15 47 0
35 -14 -12 -15 -11 -9 9 4 12 5 22 2 22 -3 0 -6 -3 -7 -7z"/>
<path d="M14232 4950 c0 -14 2 -19 5 -12 2 6 2 18 0 25 -3 6 -5 1 -5 -13z"/>
<path d="M14400 4940 c0 -17 7 -20 40 -20 33 0 40 3 40 20 0 17 -7 20 -40 20
-33 0 -40 -3 -40 -20z"/>
<path d="M14223 4870 c0 -25 2 -35 4 -22 2 12 2 32 0 45 -2 12 -4 2 -4 -23z"/>
<path d="M14338 4873 c12 -2 32 -2 45 0 12 2 2 4 -23 4 -25 0 -35 -2 -22 -4z"/>
<path d="M3563 4820 c-13 -20 -5 -34 14 -22 5 4 7 15 4 24 -6 17 -7 16 -18 -2z"/>
<path d="M3503 4790 c0 -25 2 -35 4 -22 2 12 2 32 0 45 -2 12 -4 2 -4 -23z"/>
<path d="M14766 4797 c3 -10 9 -15 12 -12 3 3 0 11 -7 18 -10 9 -11 8 -5 -6z"/>
<path d="M14231 4784 c0 -11 3 -14 6 -6 3 7 2 16 -1 19 -3 4 -6 -2 -5 -13z"/>
<path d="M14742 4790 c0 -8 4 -26 8 -40 6 -20 8 -21 8 -5 0 11 -3 29 -8 40 -5
12 -8 14 -8 5z"/>
<path d="M14722 4760 c0 -14 2 -19 5 -12 2 6 2 18 0 25 -3 6 -5 1 -5 -13z"/>
<path d="M14201 4734 c0 -11 3 -14 6 -6 3 7 2 16 -1 19 -3 4 -6 -2 -5 -13z"/>
<path d="M3492 4700 c0 -14 2 -19 5 -12 2 6 2 18 0 25 -3 6 -5 1 -5 -13z"/>
<path d="M14742 4680 c0 -14 2 -19 5 -12 2 6 2 18 0 25 -3 6 -5 1 -5 -13z"/>
<path d="M14762 4661 c-7 -21 -12 -45 -11 -52 0 -8 7 8 15 35 9 26 13 50 11
52 -2 2 -9 -13 -15 -35z"/>
<path d="M15330 4684 c0 -8 5 -12 10 -9 6 4 8 11 5 16 -9 14 -15 11 -15 -7z"/>
<path d="M15324 4635 c4 -24 16 -30 16 -7 0 12 -4 22 -9 22 -5 0 -8 -7 -7 -15z"/>
<path d="M14726 4625 c-9 -26 -7 -32 5 -12 6 10 9 21 6 23 -2 3 -7 -2 -11 -11z"/>
<path d="M15291 4624 c0 -11 3 -14 6 -6 3 7 2 16 -1 19 -3 4 -6 -2 -5 -13z"/>
<path d="M15295 4558 c-4 -26 -5 -53 -2 -60 3 -7 6 5 7 27 1 32 3 36 10 20 11
-25 11 0 1 35 -7 22 -9 19 -16 -22z"/>
<path d="M14734 4576 c-3 -8 -1 -23 5 -33 8 -15 10 -12 8 14 -2 36 -5 40 -13
19z"/>
<path d="M15332 4505 c0 -16 2 -22 5 -12 2 9 2 23 0 30 -3 6 -5 -1 -5 -18z"/>
<path d="M15292 4450 c0 -19 2 -27 5 -17 2 9 2 25 0 35 -3 9 -5 1 -5 -18z"/>
<path d="M15352 4450 c0 -19 2 -27 5 -17 2 9 2 25 0 35 -3 9 -5 1 -5 -18z"/>
<path d="M3380 4420 c0 -5 5 -10 11 -10 5 0 7 5 4 10 -3 6 -8 10 -11 10 -2 0
-4 -4 -4 -10z"/>
<path d="M14142 4390 c0 -14 2 -19 5 -12 2 6 2 18 0 25 -3 6 -5 1 -5 -13z"/>
<path d="M15292 4390 c0 -14 2 -19 5 -12 2 6 2 18 0 25 -3 6 -5 1 -5 -13z"/>
<path d="M3336 4385 c4 -8 8 -15 10 -15 2 0 4 7 4 15 0 8 -4 15 -10 15 -5 0
-7 -7 -4 -15z"/>
<path d="M15325 4390 c3 -5 8 -10 11 -10 2 0 4 5 4 10 0 6 -5 10 -11 10 -5 0
-7 -4 -4 -10z"/>
<path d="M14681 4304 c0 -11 3 -14 6 -6 3 7 2 16 -1 19 -3 4 -6 -2 -5 -13z"/>
<path d="M14701 4304 c0 -11 3 -14 6 -6 3 7 2 16 -1 19 -3 4 -6 -2 -5 -13z"/>
<path d="M15880 4306 c0 -8 5 -18 10 -21 6 -3 10 1 10 9 0 8 -4 18 -10 21 -5
3 -10 -1 -10 -9z"/>
<path d="M15905 4240 c-3 -5 -1 -18 4 -27 9 -16 10 -14 11 10 0 28 -5 34 -15
17z"/>
<path d="M15881 4144 c0 -11 3 -14 6 -6 3 7 2 16 -1 19 -3 4 -6 -2 -5 -13z"/>
<path d="M15903 4105 c0 -33 2 -45 4 -27 2 18 2 45 0 60 -2 15 -4 0 -4 -33z"/>
<path d="M15302 4060 c0 -14 2 -19 5 -12 2 6 2 18 0 25 -3 6 -5 1 -5 -13z"/>
<path d="M14651 4014 c0 -11 3 -14 6 -6 3 7 2 16 -1 19 -3 4 -6 -2 -5 -13z"/>
<path d="M15893 3925 c0 -22 2 -30 4 -17 2 12 2 30 0 40 -3 9 -5 -1 -4 -23z"/>
<path d="M15862 3910 c0 -14 2 -19 5 -12 2 6 2 18 0 25 -3 6 -5 1 -5 -13z"/>
<path d="M13602 2680 c-78 -27 -147 -52 -152 -55 -22 -14 -8 -37 34 -56 52
-23 66 -23 291 -14 137 6 172 10 183 23 16 21 16 83 -1 106 -12 16 -14 16 -26
2 -27 -33 -137 -10 -128 26 8 30 -45 22 -201 -32z"/>
<path d="M15229 2617 c-52 -18 -108 -40 -123 -50 -30 -20 -57 -73 -49 -94 7
-18 87 -17 260 2 153 17 205 29 222 49 11 14 5 93 -9 116 -9 15 -30 4 -30 -16
0 -23 -91 -19 -123 6 -32 25 -32 25 -148 -13z"/>
</g>
</svg>
